<mxfile host="65bd71144e">
    <diagram id="YQ4yvi4Qh8gLNqfzUJ_o" name="Страница 1">
        <mxGraphModel dx="940" dy="1698" grid="1" gridSize="10" guides="1" tooltips="1" connect="1" arrows="1" fold="1" page="1" pageScale="1" pageWidth="827" pageHeight="1169" math="0" shadow="0">
            <root>
                <mxCell id="0"/>
                <mxCell id="1" parent="0"/>
                <mxCell id="2" value="&lt;p style=&quot;box-sizing: border-box ; margin: 0px ; font-family: &amp;#34;roboto&amp;#34; , &amp;#34;san francisco&amp;#34; , &amp;#34;helvetica neue&amp;#34; , &amp;#34;helvetica&amp;#34; , &amp;#34;arial&amp;#34; ; font-size: 15px&quot;&gt;&lt;font color=&quot;#f0e9ea&quot;&gt;&lt;span style=&quot;box-sizing: border-box ; font-weight: 700&quot;&gt;Задача 3:&lt;/span&gt;&amp;nbsp;Напишите программу, которая на вход принимает число (N),&lt;/font&gt;&lt;/p&gt;&lt;p style=&quot;box-sizing: border-box ; margin: 0px ; font-family: &amp;#34;roboto&amp;#34; , &amp;#34;san francisco&amp;#34; , &amp;#34;helvetica neue&amp;#34; , &amp;#34;helvetica&amp;#34; , &amp;#34;arial&amp;#34; ; font-size: 15px&quot;&gt;&lt;font color=&quot;#f0e9ea&quot;&gt;а на выходе показывает все чётные числа от 1 до N.&lt;/font&gt;&lt;/p&gt;&lt;p style=&quot;box-sizing: border-box ; margin: 0px ; font-family: &amp;#34;roboto&amp;#34; , &amp;#34;san francisco&amp;#34; , &amp;#34;helvetica neue&amp;#34; , &amp;#34;helvetica&amp;#34; , &amp;#34;arial&amp;#34; ; font-size: 15px&quot;&gt;&lt;font color=&quot;#f0e9ea&quot;&gt;5 -&amp;gt; 2, 4&lt;/font&gt;&lt;/p&gt;" style="text;html=1;align=center;verticalAlign=middle;resizable=0;points=[];autosize=1;strokeColor=none;fillColor=none;" vertex="1" parent="1">
                    <mxGeometry x="180" y="-1140" width="510" height="50" as="geometry"/>
                </mxCell>
                <mxCell id="3" value="" style="ellipse;whiteSpace=wrap;html=1;labelBackgroundColor=none;fontColor=#F0E9EA;" vertex="1" parent="1">
                    <mxGeometry x="375" y="-1070" width="120" height="80" as="geometry"/>
                </mxCell>
                <mxCell id="4" value="" style="shape=parallelogram;perimeter=parallelogramPerimeter;whiteSpace=wrap;html=1;fixedSize=1;labelBackgroundColor=none;fontColor=#F0E9EA;" vertex="1" parent="1">
                    <mxGeometry x="375" y="-970" width="120" height="60" as="geometry"/>
                </mxCell>
                <mxCell id="5" value="" style="rounded=0;whiteSpace=wrap;html=1;labelBackgroundColor=none;fontColor=#F0E9EA;" vertex="1" parent="1">
                    <mxGeometry x="375" y="-880" width="120" height="60" as="geometry"/>
                </mxCell>
            </root>
        </mxGraphModel>
    </diagram>
</mxfile>